<?xml version="1.0" standalone="no"?>
<!DOCTYPE svg PUBLIC "-//W3C//DTD SVG 20010904//EN"
 "http://www.w3.org/TR/2001/REC-SVG-20010904/DTD/svg10.dtd">
<svg version="1.0" xmlns="http://www.w3.org/2000/svg"
 width="349.000000pt" height="72.000000pt" viewBox="0 0 349.000000 72.000000"
 preserveAspectRatio="xMidYMid meet">

<g transform="translate(0.000000,72.000000) scale(0.100000,-0.100000)"
fill="#F44336" stroke="none">
<path d="M822 701 c-100 -35 -172 -125 -298 -374 -78 -154 -112 -212 -121
-203 -2 2 48 130 111 284 64 154 116 285 116 291 0 38 -106 -16 -170 -86 -57
-62 -98 -130 -194 -320 -71 -140 -111 -193 -145 -193 -18 0 -20 3 -11 19 15
29 12 56 -8 74 -24 22 -55 21 -75 -1 -43 -47 5 -129 80 -139 60 -8 88 2 139
49 53 49 92 113 170 278 62 132 123 244 130 238 2 -3 -44 -123 -102 -267 -58
-145 -104 -271 -102 -280 4 -21 51 -26 89 -10 62 25 117 106 224 324 74 151
115 223 144 253 59 60 69 52 16 -14 -147 -180 -219 -501 -131 -583 75 -71 249
-23 249 69 0 59 -68 83 -99 35 -14 -21 -15 -31 -6 -50 10 -22 9 -25 -6 -25
-23 0 -57 35 -71 73 -15 40 -13 171 4 243 29 124 96 243 166 293 21 16 35 31
32 35 -12 12 -78 5 -131 -13z"/>
<path d="M2717 686 c-74 -31 -125 -66 -180 -125 -34 -37 -48 -45 -71 -43 -25
3 -27 6 -21 33 6 27 5 29 -23 29 -24 0 -32 -6 -41 -30 -10 -30 -11 -30 -85
-30 -65 0 -77 -3 -86 -20 -10 -19 -8 -20 69 -20 l79 0 -29 -77 c-18 -50 -40
-88 -59 -105 -54 -49 -62 -35 -30 50 45 119 10 137 -82 42 -32 -32 -58 -58
-58 -56 0 2 7 23 15 46 20 57 20 60 -15 60 -25 0 -33 -7 -51 -42 -24 -47 -102
-128 -124 -128 -11 0 -7 20 15 86 l30 87 -44 -5 c-24 -3 -51 -1 -60 4 -12 7
-27 6 -47 -2 -32 -14 -89 -73 -89 -93 0 -16 -62 -77 -78 -77 -16 0 -15 11 8
70 54 138 -8 148 -111 18 -21 -28 -39 -48 -39 -46 0 2 20 63 44 136 l45 132
-29 0 c-25 0 -30 -6 -45 -47 -36 -100 -80 -179 -126 -225 -53 -53 -91 -62
-110 -27 -20 39 12 129 47 129 17 0 19 -31 3 -47 -15 -15 -3 -33 22 -33 28 0
46 43 31 75 -28 61 -121 34 -159 -46 -23 -48 -74 -99 -99 -99 -17 0 -10 45 17
109 25 58 25 61 -16 61 -23 0 -35 5 -34 13 5 41 -16 50 -46 17 -11 -13 -16
-29 -12 -47 7 -35 -12 -72 -58 -111 -42 -37 -79 -49 -100 -32 -26 22 -18 40
18 40 42 0 77 35 77 76 0 38 -16 54 -56 54 -66 0 -120 -72 -111 -149 5 -49 33
-81 70 -81 48 0 134 70 179 146 18 31 57 50 45 22 -3 -7 -16 -36 -28 -65 -19
-43 -21 -56 -11 -78 16 -35 50 -32 105 10 l46 35 13 -27 c28 -59 95 -52 170
15 43 39 43 39 23 -17 l-14 -41 32 0 c29 0 39 8 86 75 30 41 58 75 62 75 12 0
12 0 -6 -50 -28 -79 -15 -110 39 -96 14 3 38 18 55 32 l31 26 9 -25 c14 -36
45 -42 84 -18 32 20 33 20 45 1 7 -11 21 -20 31 -20 24 0 88 43 129 87 l33 35
-7 -28 c-4 -16 -13 -44 -20 -61 -13 -32 -13 -33 14 -32 22 0 36 14 77 71 64
91 79 97 55 21 -22 -72 -13 -98 32 -89 16 3 43 15 59 27 l29 20 0 -21 c0 -49
63 -37 131 27 l49 46 23 -21 c12 -11 34 -25 50 -31 l27 -11 -24 -47 c-13 -27
-38 -58 -55 -71 -62 -45 -28 -77 44 -42 l46 22 52 -34 c74 -48 101 -58 157
-58 41 0 55 5 84 30 19 17 39 44 45 60 8 26 7 34 -13 57 -18 21 -28 25 -50 19
-38 -9 -54 -48 -32 -81 16 -24 16 -25 -4 -25 -11 0 -49 16 -86 35 -36 19 -74
35 -84 35 -31 0 -32 16 -7 67 13 26 48 114 77 195 59 167 94 229 145 259 19
12 35 25 35 30 0 19 -115 9 -173 -15z m36 -38 c-49 -52 -90 -124 -134 -237
-23 -59 -43 -108 -45 -110 -6 -7 -34 67 -34 92 0 93 88 218 185 264 64 29 65
29 28 -9z m-288 -185 c-14 -35 -23 -84 -18 -102 3 -13 -7 -31 -34 -55 -32 -29
-63 -46 -63 -33 0 3 55 168 65 195 2 6 16 12 31 12 21 0 25 -3 19 -17z m-1520
-63 c10 -16 -14 -49 -41 -56 -34 -9 -36 -3 -14 34 19 32 43 41 55 22z m932 -6
c14 -38 -74 -161 -98 -137 -8 8 -7 25 5 61 25 76 77 118 93 76z"/>
<path d="M3075 439 c-36 -21 -67 -53 -86 -91 -27 -52 -37 -47 -31 14 4 42 1
54 -13 65 -42 30 -118 1 -155 -59 -30 -48 -24 -114 12 -141 35 -26 72 -17 113
29 39 42 51 43 60 3 4 -18 16 -35 31 -41 l23 -11 -32 -16 c-59 -30 -42 -91 25
-91 40 0 74 25 104 76 14 24 44 57 67 74 39 29 42 29 49 11 4 -11 18 -27 32
-37 35 -22 71 -12 111 32 17 19 41 34 52 34 22 0 60 36 50 47 -4 3 -15 -1 -25
-10 -31 -29 -39 -20 -34 35 4 42 1 54 -13 65 -42 30 -122 0 -153 -59 -22 -41
-79 -105 -86 -97 -3 3 5 39 19 79 14 40 25 77 25 82 0 12 -48 10 -56 -3 -4 -7
-9 -8 -13 -1 -10 17 -54 23 -76 11z m-141 -44 c3 -8 1 -15 -4 -15 -5 0 -17
-11 -25 -24 -12 -19 -14 -29 -6 -44 13 -25 -20 -72 -51 -72 -19 0 -20 5 -16
45 10 81 83 160 102 110z m203 -1 c13 -35 -70 -156 -97 -139 -20 13 9 103 45
139 21 20 44 21 52 0z m267 1 c3 -8 1 -15 -4 -15 -5 0 -17 -11 -25 -24 -12
-19 -14 -29 -6 -44 13 -25 -20 -72 -51 -72 -19 0 -20 5 -16 45 10 81 83 160
102 110z m-320 -170 c-4 -8 -16 -15 -27 -15 -20 0 -20 0 -1 15 25 19 35 19 28
0z m-34 -66 c-14 -25 -38 -35 -52 -21 -6 6 -2 15 13 26 34 23 53 21 39 -5z"/>
</g>
</svg>
